<?xml version="1.0" encoding="utf-8"?>
<!-- Generator: Adobe Illustrator 16.0.0, SVG Export Plug-In . SVG Version: 6.00 Build 0)  -->
<!DOCTYPE svg PUBLIC "-//W3C//DTD SVG 1.1//EN" "http://www.w3.org/Graphics/SVG/1.1/DTD/svg11.dtd">
<svg version="1.1" xmlns="http://www.w3.org/2000/svg" xmlns:xlink="http://www.w3.org/1999/xlink" x="0px" y="0px" width="1600px"
	 height="800px" viewBox="0 0 1600 800" enable-background="new 0 0 1600 800" xml:space="preserve">
<g id="Layer_2">
</g>
<g id="Layer_1">
	<path opacity="0.2" fill="#E97AFF" d="M1102.5,734.8c2.5-1.2,24.8-8.6,25.6-7.5c0.5,0.7-3.899,23.8-4.6,24.5
		C1123.3,752.1,1107.5,739.5,1102.5,734.8z M33,770.3L33,770.3c0-0.7-0.5-1.2-1.2-1.2c-0.1,0-0.3,0-0.4,0.101
		c-1.6,0.2-14.3,0.1-22.2,0c-0.3,0-0.6,0.1-0.9,0.399c-0.2,0.2-0.4,0.5-0.4,0.9c0,0.2,0,4.9,0.1,5.9L8.4,790c0,0.3,0.2,0.6,0.4,0.9
		c0.2,0.199,0.5,0.3,0.8,0.3h0.1c7.3-0.7,14.7-0.9,22-0.601c0.3,0,0.7-0.1,0.9-0.3c0.2-0.2,0.4-0.6,0.4-0.899
		C32.9,783.3,32.9,776.2,33,770.3z"/>
	<path opacity="0.2" fill="#3AFF28" d="M192.1,293.4c1.3-2.5,14.3-22,15.6-21.601c0.8,0.3,11.5,21.2,11.5,22.101
		C219.1,294.2,198.9,294,192.1,293.4z M748.5,89.9L748.5,89.9c0.6,0.2,1.3-0.2,1.4-0.8c0-0.1,0-0.2,0-0.4
		c0.199-1.4,2.8-12.6,4.5-19.5c0.1-0.3,0-0.6-0.2-0.8c-0.2-0.3-0.5-0.4-0.8-0.5c-0.2,0-4.7-1.1-5.7-1.3l-13.4-2.7
		c-0.3-0.1-0.7,0-0.899,0.2c-0.2,0.2-0.4,0.4-0.5,0.6v0.1c-0.801,6.5-2.2,13.1-3.9,19.4c-0.1,0.3,0,0.6,0.2,0.9
		c0.2,0.3,0.5,0.4,0.8,0.5C735.8,86.9,742.7,88.5,748.5,89.9z M749.5,88.1c-0.1-0.1-0.2-0.2-0.4-0.2C749.3,87.9,749.4,88,749.5,88.1
		z"/>
	<g opacity="0.2">
		<circle fill="#4AB6FF" cx="872.9" cy="184.9" r="7.1"/>
		<circle fill="#4AB6FF" cx="883.5" cy="163.1" r="7.1"/>
		<circle fill="#4AB6FF" cx="896.5" cy="179.9" r="7.1"/>
	</g>
	<g opacity="0.2">
		<path fill="#9CA8B2" d="M45.375,357c0,27.625-16.75,44.375-41.375,44.375c-25,0-39.625-18.875-39.625-42.875
			c0-25.25,16.125-44.125,41-44.125C31.25,314.375,45.375,333.75,45.375,357z M-15.5,358.125c0,16.5,7.75,28.125,20.5,28.125
			c12.875,0,20.25-12.25,20.25-28.625C25.25,342.5,18,329.5,4.875,329.5C-8,329.5-15.5,341.75-15.5,358.125z"/>
		<path fill="#9CA8B2" d="M57.875,315.75H77V384h33.5v16H57.875V315.75z"/>
		<path fill="#9CA8B2" d="M142.122,378.375l-6,21.625h-19.75l25.75-84.25h25L193.247,400h-20.5l-6.5-21.625H142.122z
			 M163.497,364.125l-5.25-17.875c-1.5-5-3-11.25-4.25-16.25h-0.25c-1.25,5-2.5,11.375-3.875,16.25l-5,17.875H163.497z"/>
		<path fill="#9CA8B2" d="M212.123,400v-34.5l-26.625-49.75h21.75l8.625,20.25c2.625,6.125,4.375,10.625,6.5,16.125h0.25
			c1.875-5.25,3.875-10.125,6.375-16.125l8.5-20.25h21.375l-27.75,49.125V400H212.123z"/>
		<path fill="#9CA8B2" d="M264.999,380.375c5.125,2.625,13,5.25,21.125,5.25c8.75,0,13.375-3.625,13.375-9.125
			c0-5.25-4-8.25-14.125-11.875c-14-4.875-23.125-12.625-23.125-24.875c0-14.375,12-25.375,31.875-25.375c9.5,0,16.5,2,21.5,4.25
			L311.374,334c-3.375-1.625-9.375-4-17.625-4s-12.25,3.75-12.25,8.125c0,5.375,4.75,7.75,15.625,11.875
			c14.875,5.5,21.875,13.25,21.875,25.125c0,14.125-10.875,26.125-34,26.125c-9.625,0-19.125-2.5-23.875-5.125L264.999,380.375z"/>
		<path fill="#9CA8B2" d="M393.748,397.625c-3.5,1.75-11.375,3.625-21.625,3.625c-29.125,0-44.125-18.125-44.125-42.125
			c0-28.75,20.5-44.75,46-44.75c9.875,0,17.375,2,20.75,3.75l-3.875,15.125c-3.875-1.625-9.25-3.125-16-3.125
			c-15.125,0-26.875,9.125-26.875,27.875c0,16.875,10,27.5,27,27.5c5.75,0,12.125-1.25,15.875-2.75L393.748,397.625z"/>
		<path fill="#9CA8B2" d="M479.621,357c0,27.625-16.75,44.375-41.375,44.375c-25,0-39.625-18.875-39.625-42.875
			c0-25.25,16.125-44.125,41-44.125C465.496,314.375,479.621,333.75,479.621,357z M418.746,358.125c0,16.5,7.75,28.125,20.5,28.125
			c12.875,0,20.25-12.25,20.25-28.625c0-15.125-7.25-28.125-20.375-28.125C426.246,329.5,418.746,341.75,418.746,358.125z"/>
	</g>
	<g>
	</g>
</g>
</svg>
