<?xml version="1.0" encoding="utf-8"?>
<!-- Generator: Adobe Illustrator 16.0.0, SVG Export Plug-In . SVG Version: 6.00 Build 0)  -->
<!DOCTYPE svg PUBLIC "-//W3C//DTD SVG 1.1//EN" "http://www.w3.org/Graphics/SVG/1.1/DTD/svg11.dtd">
<svg version="1.1" id="Layer_1" xmlns="http://www.w3.org/2000/svg" xmlns:xlink="http://www.w3.org/1999/xlink" x="0px" y="0px"
	 width="160px" height="160px" viewBox="0 0 160 160" enable-background="new 0 0 160 160" xml:space="preserve">
<g>
	<path d="M34.128,69.983c0-12.656,2.057-24.041,6.172-34.153c4.114-10.112,9.835-18.014,17.161-23.706s15.633-8.539,24.924-8.539
		c9.716,0,18.224,2.848,25.522,8.539c7.299,5.692,12.927,13.563,16.883,23.611c3.953,10.049,5.932,21.465,5.932,34.249
		c0,12.592-2.043,23.916-6.132,33.96c-4.089,10.05-9.782,17.923-17.081,23.611c-7.3,5.694-15.542,8.539-24.726,8.539
		c-9.823,0-18.41-2.83-25.761-8.491c-7.354-5.659-13.008-13.499-16.963-23.516C36.106,94.071,34.128,82.705,34.128,69.983z
		 M123.157,69.983c0-12.212-1.805-22.753-5.415-31.626c-3.609-8.872-8.507-15.612-14.691-20.225
		c-6.186-4.61-13.073-6.917-20.665-6.917c-7.485,0-14.333,2.306-20.545,6.917c-6.211,4.612-11.136,11.353-14.771,20.225
		c-3.636,8.873-5.455,19.414-5.455,31.626c0,12.338,1.832,22.913,5.495,31.721c3.664,8.809,8.613,15.47,14.852,19.983
		c6.237,4.52,13.179,6.773,20.824,6.773c7.485,0,14.279-2.256,20.385-6.773c6.105-4.514,10.963-11.175,14.574-19.983
		C121.353,92.896,123.157,82.321,123.157,69.983z M79.201,147.16h7.327v9.254h-7.327V147.16z"/>
</g>
</svg>
