
<svg xmlns="http://www.w3.org/2000/svg" xmlns:xlink="http://www.w3.org/1999/xlink" x="0px" y="0px"
    viewBox="0 0 150 15" style="enable-background:new 0 0 150 15;" xml:space="preserve">>
  <svg class="svg-water svg-water-1" version="1.1" id="Layer_1" xmlns="http://www.w3.org/2000/svg" xmlns:xlink="http://www.w3.org/1999/xlink" x="0px" y="0px"
    viewBox="0 0 150 15" style="enable-background:new 0 0 150 15;" xml:space="preserve">
  <style type="text/css">
      .st0{fill-rule:evenodd;clip-rule:evenodd;fill:#000000;}
  </style>
  <path class="st0" d="M0.2,10C23.4,3,48.2,8,74,10c25.7,2.4,52.1-0.9,75.5-10c0.2,0,0.3,0,0.5,0.3c-24.3,14.3-49.5,16.2-74.5,13.9
      C50.4,11.2,26,9.4,0,11.7C0.1,11.5,0.1,10.9,0.2,10L0.2,10L0.2,10z"/>
</svg>
<svg class="svg-water svg-water-2" version="1.1" id="Layer_1" xmlns="http://www.w3.org/2000/svg" xmlns:xlink="http://www.w3.org/1999/xlink" x="0px" y="0px"
    viewBox="0 0 150 15" style="enable-background:new 0 0 150 15;" xml:space="preserve">
  <style type="text/css">
      .st0{fill-rule:evenodd;clip-rule:evenodd;fill:#000000;}
  </style>
  <path class="st0" d="M0.2,10C23.4,3,48.2,8,74,10c25.7,2.4,52.1-0.9,75.5-10c0.2,0,0.3,0,0.5,0.3c-24.3,14.3-49.5,16.2-74.5,13.9
      C50.4,11.2,26,9.4,0,11.7C0.1,11.5,0.1,10.9,0.2,10L0.2,10L0.2,10z"/>
</svg>
<svg class="svg-water svg-water-3" version="1.1" id="Layer_1" xmlns="http://www.w3.org/2000/svg" xmlns:xlink="http://www.w3.org/1999/xlink" x="0px" y="0px"
      viewBox="0 0 150 15" style="enable-background:new 0 0 150 15;" xml:space="preserve">
  <style type="text/css">
      .st0{fill-rule:evenodd;clip-rule:evenodd;fill:#000000;}
  </style>
  <path class="st0" d="M0.2,10C23.4,3,48.2,8,74,10c25.7,2.4,52.1-0.9,75.5-10c0.2,0,0.3,0,0.5,0.3c-24.3,14.3-49.5,16.2-74.5,13.9
    C50.4,11.2,26,9.4,0,11.7C0.1,11.5,0.1,10.9,0.2,10L0.2,10L0.2,10z"/>
</svg>
</svg>

